HIERARCHY
ROOT SpineBase
{
  OFFSET 0.000000 0.000000 0.000000
  CHANNELS 6 Xposition Yposition Zposition Zrotation Xrotation Yrotation
  JOINT SpineMid
  {
    OFFSET 0.000000 28.391612 0.000000
    CHANNELS 3 Zrotation Xrotation Yrotation
    JOINT SpineShoulder
    {
      OFFSET 0.336725 21.173033 -0.574968
      CHANNELS 3 Zrotation Xrotation Yrotation
      JOINT Neck
      {
        OFFSET 0.202023 7.075199 -0.495899
        CHANNELS 3 Zrotation Xrotation Yrotation
        JOINT Head
        {
          OFFSET 1.029804 11.170876 4.039608
          CHANNELS 3 Zrotation Xrotation Yrotation
          End Site
          {
            OFFSET 0 0 0
          }
        }
      }
      JOINT ShoulderLeft
      {
        OFFSET -1.743652 -5.338713 -12.727764
        CHANNELS 3 Zrotation Xrotation Yrotation
        JOINT ElbowLeft
        {
          OFFSET -1.001466 -24.752838 -5.006924
          CHANNELS 3 Zrotation Xrotation Yrotation
          JOINT WristLeft
          {
            OFFSET 4.641646 -24.015356 0.371648
            CHANNELS 3 Zrotation Xrotation Yrotation
            JOINT HandLeft
            {
              OFFSET -0.726813 -4.193715 0.492631
              CHANNELS 3 Zrotation Xrotation Yrotation
              JOINT HandTipLeft
              {
                OFFSET 0.425631 -5.097321 -0.156403
                CHANNELS 3 Zrotation Xrotation Yrotation
                End Site
                {
                  OFFSET 0 0 0
                }
              }
              JOINT ThumbLeft
              {
                OFFSET -0.186880 0.213858 -4.195114
                CHANNELS 3 Zrotation Xrotation Yrotation
                End Site
                {
                  OFFSET 0 0 0
                }
              }
            }
          }
        }
      }
      JOINT ShoulderRight
      {
        OFFSET 6.505179 -2.044190 14.230639
        CHANNELS 3 Zrotation Xrotation Yrotation
        JOINT ElbowRight
        {
          OFFSET -5.279782 -17.825371 -19.122484
          CHANNELS 3 Zrotation Xrotation Yrotation
          JOINT WristRight
          {
            OFFSET -1.175591 -24.368556 -8.573304
            CHANNELS 3 Zrotation Xrotation Yrotation
            JOINT HandRight
            {
              OFFSET 0.055249 -15.601209 -2.319807
              CHANNELS 3 Zrotation Xrotation Yrotation
              JOINT HandTipRight
              {
                OFFSET 0.258017 -4.837773 1.128715
                CHANNELS 3 Zrotation Xrotation Yrotation
                End Site
                {
                  OFFSET 0 0 0
                }
              }
              JOINT ThumbRight
              {
                OFFSET 2.861081 -0.279485 0.442461
                CHANNELS 3 Zrotation Xrotation Yrotation
                End Site
                {
                  OFFSET 0 0 0
                }
              }
            }
          }
        }
      }
    }
  }
  JOINT HipLeft
  {
    OFFSET -1.416652 0.997833 -8.283689
    CHANNELS 3 Zrotation Xrotation Yrotation
    JOINT KneeLeft
    {
      OFFSET -4.515134 -27.558296 3.292508
      CHANNELS 3 Zrotation Xrotation Yrotation
      JOINT AnkleLeft
      {
        OFFSET -6.796636 -36.809953 5.081255
        CHANNELS 3 Zrotation Xrotation Yrotation
        JOINT FootLeft
        {
          OFFSET 6.649852 -4.416078 -3.313391
          CHANNELS 3 Zrotation Xrotation Yrotation
          End Site
          {
            OFFSET 0 0 0
          }
        }
      }
    }
  }
  JOINT HipRight
  {
    OFFSET 2.439083 0.481757 1.299648
    CHANNELS 3 Zrotation Xrotation Yrotation
    JOINT KneeRight
    {
      OFFSET -6.921743 -33.021345 -0.784293
      CHANNELS 3 Zrotation Xrotation Yrotation
      JOINT AnkleRight
      {
        OFFSET -9.102375 -31.294999 -2.159791
        CHANNELS 3 Zrotation Xrotation Yrotation
        JOINT FootRight
        {
          OFFSET 3.158645 -3.016750 7.189374
          CHANNELS 3 Zrotation Xrotation Yrotation
          End Site
          {
            OFFSET 0 0 0
          }
        }
      }
    }
  }
}
MOTION
Frames: 12
Frame Time: 0.033333
-54.036391 69.512922 349.716828 -0.624021 -0.222630 -67.145338 0.037225 0.661498 67.143911 -0.000000 0.000000 0.000000 -5.346349 1.361491 1.856669 0.000000 0.000000 0.000000 -1.938803 -1.635387 0.431657 2.211002 3.814547 -0.070883 6.786480 -7.225586 1.852866 0.198413 -8.693551 -2.553406 0.000000 0.000000 0.000000 0.000000 0.000000 0.000000 0.835449 -1.241874 -0.526610 -0.847024 1.234009 0.544786 -0.281078 -1.449296 0.033169 7.532341 -11.896163 1.561736 0.000000 0.000000 0.000000 0.000000 0.000000 0.000000 -1.962643 -0.161856 66.719859 1.073819 -0.583626 0.208138 -6.925582 -11.002266 -12.091131 0.000000 0.000000 0.000000 -3.022320 -3.035343 66.901576 13.934364 -15.773772 5.386362 -27.776283 51.299518 58.584661 0.000000 0.000000 0.000000
-53.959478 69.244254 350.087598 -0.500365 -0.659731 -67.103853 -0.413081 0.717616 67.103559 0.536187 -0.671140 0.059869 -6.529497 2.340338 2.098405 0.000000 0.000000 0.000000 -1.579067 -1.107848 0.226033 1.425143 3.611791 0.043422 5.179622 -6.400824 1.480204 3.101091 -11.301220 -2.324974 0.000000 0.000000 0.000000 0.000000 0.000000 0.000000 0.222522 -0.551228 -0.513012 -0.769084 1.216014 0.466788 -0.251221 -1.110738 0.031031 6.592890 -12.093576 1.313874 0.000000 0.000000 0.000000 0.000000 0.000000 0.000000 -3.547111 0.399861 66.500154 0.477869 -1.722872 0.293051 -11.763829 -12.055970 -10.591827 0.000000 0.000000 0.000000 -3.675140 -3.035543 66.828222 12.568951 -12.717978 4.090481 -17.184414 41.624072 38.527435 0.000000 0.000000 0.000000
-53.818583 69.007356 350.462002 -0.298203 -1.041223 -67.263904 0.153669 0.691485 67.279652 0.124836 0.055005 0.034621 -7.313366 2.276496 2.432078 0.000000 0.000000 0.000000 -1.283326 -0.962909 0.169959 1.519911 3.617950 0.083103 4.064002 -8.360593 1.761832 3.080074 -6.952353 -2.788946 0.000000 0.000000 0.000000 0.000000 0.000000 0.000000 0.140851 0.007854 -0.527392 -0.671605 0.847110 0.469989 -0.166560 -1.445406 0.017580 3.458047 -8.789053 0.403548 0.000000 0.000000 0.000000 0.000000 0.000000 0.000000 -5.158393 0.254046 66.429253 0.726285 -2.911612 0.506573 -21.661537 -18.314394 -21.170251 0.000000 0.000000 0.000000 -4.347619 -3.062266 66.935864 10.864800 -8.948387 2.632217 -7.893552 24.957308 19.888792 0.000000 0.000000 0.000000
-53.713453 68.815622 350.844760 -0.159658 -1.376268 -67.414381 0.033775 0.590317 67.435451 0.143378 0.152573 0.035504 -8.100662 1.845557 2.765257 0.000000 0.000000 0.000000 -1.110700 -0.809476 0.128565 1.831951 3.674742 0.115272 2.822730 -8.754127 1.660842 2.552770 -3.525303 -2.709427 0.000000 0.000000 0.000000 0.000000 0.000000 0.000000 0.037258 0.433917 -0.517596 -0.583123 0.589506 0.450781 -0.223001 -0.993441 0.027743 -0.978232 -6.175264 -0.738694 0.000000 0.000000 0.000000 0.000000 0.000000 0.000000 -5.374369 0.864229 66.661559 -0.906304 -2.910879 0.208649 -38.304619 -22.611268 -29.620011 0.000000 0.000000 0.000000 -4.867778 -3.086090 67.056288 8.957007 -3.079078 0.616645 -3.437535 4.458994 5.119352 0.000000 0.000000 0.000000
-53.587990 68.754227 351.242956 0.026029 -1.747891 -67.902990 -0.086053 0.477909 67.932941 0.184586 0.289472 0.038228 -8.886104 1.076559 3.079041 0.000000 0.000000 0.000000 -1.524455 -0.016371 0.170578 3.042990 2.648780 -0.002686 0.838891 -5.681844 0.932209 1.126023 -5.432721 -1.872839 0.000000 0.000000 0.000000 0.000000 0.000000 0.000000 -0.619391 1.199569 -0.071224 -0.000000 0.000000 0.000000 -0.000000 0.000000 0.000000 -4.682319 -7.350183 -1.763794 0.000000 0.000000 0.000000 0.000000 0.000000 0.000000 -6.724475 1.351870 67.030053 -1.977888 -3.842145 0.105491 -39.197637 -22.681358 -27.423783 0.000000 0.000000 0.000000 -5.087099 -2.788854 67.554446 6.972348 0.495718 -0.469271 -6.320909 1.370905 -4.913094 0.000000 0.000000 0.000000
-53.398420 68.836415 351.644534 0.279400 -2.168094 -68.297511 -0.156422 0.292015 68.342361 0.250076 0.359882 0.046047 -9.673452 0.566478 3.392824 0.000000 0.000000 0.000000 -2.555411 1.854170 0.322386 4.982717 0.489479 -0.149131 -0.836405 -3.302700 0.562774 0.410298 -5.085103 -1.314798 0.000000 0.000000 0.000000 0.000000 0.000000 0.000000 -0.740212 1.555883 -0.086326 -0.000000 0.000000 0.000000 -0.692450 0.430802 0.107036 -5.697169 -8.521034 -2.490208 0.000000 0.000000 0.000000 0.000000 0.000000 0.000000 -8.540760 1.733884 67.232877 -2.470105 -5.141879 0.129984 -26.639369 -18.873020 -16.063321 0.000000 0.000000 0.000000 -6.503368 -2.797500 67.747810 6.760366 1.595000 -0.801160 -4.785471 -3.602361 -4.896658 0.000000 0.000000 0.000000
-53.383870 68.958771 351.726769 0.210497 -2.238532 -68.539045 -0.002944 0.348294 68.584620 0.311127 0.465530 0.048849 -10.512437 -0.427155 3.700130 0.000000 0.000000 0.000000 -3.187803 2.809661 0.423472 6.788367 -0.843765 -0.185071 -4.449236 -0.353734 -0.152134 3.593980 -8.447429 -0.551253 0.000000 0.000000 0.000000 0.000000 0.000000 0.000000 -0.841517 1.644012 -0.093929 -0.000000 0.000000 0.000000 -1.351678 1.676411 0.226227 -4.914806 -13.729900 -3.062188 0.000000 0.000000 0.000000 0.000000 0.000000 0.000000 -9.501675 2.197489 67.367697 -2.549585 -6.381269 0.252743 -21.895681 -16.048851 -10.614249 0.000000 0.000000 0.000000 -7.619096 -2.823036 67.779714 8.636456 -1.265093 0.040516 -3.993655 -2.095181 -0.195715 0.000000 0.000000 0.000000
-53.393906 69.062558 351.907062 0.205411 -2.268285 -68.608908 -0.108653 0.463319 68.653154 0.348071 0.587320 0.047547 -11.061980 -1.819162 3.843816 0.000000 0.000000 0.000000 -3.679960 2.223116 0.511809 7.209342 -0.516982 -0.310644 -4.477438 -0.341718 -0.149856 4.994279 -9.821876 -0.545543 0.000000 0.000000 0.000000 0.000000 0.000000 0.000000 -0.942360 1.412123 -0.094821 -0.000000 0.000000 0.000000 -2.072201 2.236984 0.355532 -2.735265 -17.796616 -2.967509 0.000000 0.000000 0.000000 0.000000 0.000000 0.000000 -10.319263 2.384352 67.324173 -1.906702 -7.507448 0.549457 -20.957388 -14.718241 -8.766457 0.000000 0.000000 0.000000 -9.420474 -3.203940 67.503631 11.590042 -4.969403 1.315477 -6.460199 1.548277 -0.712615 0.000000 0.000000 0.000000
-53.445681 69.193176 351.968264 0.201961 -2.121540 -68.514080 -0.232696 0.586463 68.554584 0.331282 0.643287 0.044147 -11.609803 -3.316794 3.972859 0.000000 0.000000 0.000000 -4.577273 2.520384 0.684693 8.164501 -1.356664 -0.392770 -2.701713 0.900464 -0.095352 5.805511 -12.309390 -0.321605 0.000000 0.000000 0.000000 0.000000 0.000000 0.000000 -0.991524 1.048245 -0.090395 -0.000000 0.000000 0.000000 -1.789356 2.707806 0.316876 -5.148331 -17.146387 -3.712237 0.000000 0.000000 0.000000 0.000000 0.000000 0.000000 -10.641056 2.328137 67.138408 -0.303459 -8.398911 1.110039 -11.926779 -6.492433 0.870692 0.000000 0.000000 0.000000 -11.329355 -3.703489 66.988883 15.798328 -10.853677 3.734571 -11.885002 12.450358 -1.135523 0.000000 0.000000 0.000000
-53.534166 69.354061 352.022881 0.225042 -1.746787 -68.552166 -0.310157 0.722255 68.588218 0.314110 0.686402 0.041291 -12.455667 -4.851773 4.128157 0.000000 0.000000 0.000000 -5.437098 1.719626 0.824483 8.465007 -0.449398 -0.485596 -0.616002 -0.756996 0.183599 6.431933 -10.747133 -0.646816 0.000000 0.000000 0.000000 0.000000 0.000000 0.000000 -1.096701 0.509017 -0.086536 -0.000000 0.000000 0.000000 -1.604628 2.336603 0.278784 -5.375499 -13.259926 -3.301556 0.000000 0.000000 0.000000 0.000000 0.000000 0.000000 -10.373647 1.813544 67.090881 0.829635 -8.549162 1.429364 -10.283044 -3.822476 3.367289 0.000000 0.000000 0.000000 -14.430006 -4.813486 66.253905 24.859344 -20.746462 9.362201 -27.707238 39.192708 0.599825 0.000000 0.000000 0.000000
-53.678150 69.558649 352.009900 0.194138 -1.137664 -68.974553 -0.399393 0.861573 69.002234 0.279592 0.717301 0.033374 -13.008444 -6.501333 4.145209 0.000000 0.000000 0.000000 -5.712653 -0.357433 0.830022 8.072966 2.144260 -0.525885 1.274204 -3.627650 0.518359 4.735816 -8.544468 -1.293414 0.000000 0.000000 0.000000 0.000000 0.000000 0.000000 -1.134553 -0.260336 -0.074634 -0.000000 0.000000 0.000000 -0.189192 3.459317 0.045893 -4.650285 -7.698477 -1.844040 0.000000 0.000000 0.000000 0.000000 0.000000 0.000000 -9.306342 0.806935 67.472881 1.842477 -8.025763 1.587300 -12.205952 -4.929688 1.938237 0.000000 0.000000 0.000000 -14.465715 -5.044712 66.472130 27.396130 -24.695330 11.908201 -53.095882 62.854135 16.160529 0.000000 0.000000 0.000000
-53.852202 69.770932 351.945263 0.145560 -0.376553 -69.223104 -0.408895 0.942606 69.242158 0.249120 0.627672 0.027662 -13.376765 -8.451911 4.112107 0.000000 0.000000 0.000000 -6.622012 -1.264291 0.953785 8.392225 3.453268 -0.542918 4.050443 -5.210695 0.898237 2.127850 -6.500174 -1.650152 0.000000 0.000000 0.000000 0.000000 0.000000 0.000000 -1.131673 -0.966820 -0.061209 -0.000000 0.000000 0.000000 -0.549773 3.129005 0.107414 -5.542293 -3.573211 -1.880048 0.000000 0.000000 0.000000 0.000000 0.000000 0.000000 -8.399849 -0.036918 67.646947 3.089727 -7.378755 1.773146 -17.285570 -8.061914 -0.443705 0.000000 0.000000 0.000000 -13.322079 -5.341098 66.749841 29.331972 -27.566071 13.881107 -130.985712 70.267026 86.961521 0.000000 0.000000 0.000000
